<svg xmlns="http://www.w3.org/2000/svg" width="24" height="24" fill="none" viewBox="0 0 24 24">
    <path fill="#fff" fill-rule="evenodd" d="M11.53 6.282c-2.908 0-5.266 2.392-5.266 5.343 0 2.95 2.358 5.342 5.267 5.342 2.909 0 5.267-2.392 5.267-5.342 0-2.95-2.358-5.343-5.267-5.343m6.39 12.53l-2.13-2.173c-1.144 1-2.631 1.61-4.26 1.61C7.924 18.25 5 15.284 5 11.625S7.924 5 11.531 5c3.607 0 6.53 2.966 6.53 6.625 0 1.543-.524 2.96-1.397 4.086l2.152 2.195c.246.25.245.655 0 .906-.248.25-.648.25-.895 0z" clip-rule="evenodd"/>
    <path fill="#fff" d="M16.798 11.625h-.5.5zm1.123 7.187l-.357.35.001.001.356-.35zm-2.13-2.173l.357-.35-.33-.338-.356.311.329.377zm.873-.928l-.395-.306-.267.345.305.311.357-.35zm2.152 2.195l.357-.35-.357.35zm0 .906l.355.351h.001l-.357-.35zM11.53 5.782c-3.192 0-5.767 2.623-5.767 5.843h1c0-2.681 2.141-4.843 4.767-4.843v-1zm-5.767 5.843c0 3.22 2.576 5.842 5.767 5.842v-1c-2.626 0-4.767-2.161-4.767-4.842h-1zm5.767 5.842c3.191 0 5.767-2.622 5.767-5.842h-1c0 2.68-2.141 4.842-4.767 4.842v1zm5.767-5.842c0-3.22-2.576-5.843-5.767-5.843v1c2.626 0 4.767 2.162 4.767 4.843h1zm.98 6.837l-2.13-2.173-.714.7 2.13 2.173.714-.7zm-2.816-2.2c-1.058.926-2.43 1.487-3.931 1.487v1c1.756 0 3.359-.658 4.59-1.734l-.66-.753zM11.53 17.75c-3.324 0-6.031-2.735-6.031-6.124h-1c0 3.928 3.141 7.124 7.031 7.124v-1zM5.5 11.625c0-3.39 2.707-6.125 6.031-6.125v-1C7.641 4.5 4.5 7.697 4.5 11.625h1zM11.531 5.5c3.325 0 6.03 2.736 6.03 6.125h1c0-3.928-3.14-7.125-7.03-7.125v1zm6.03 6.125c0 1.428-.485 2.738-1.292 3.78l.79.613c.938-1.21 1.503-2.735 1.503-4.393h-1zm-1.254 4.436l2.152 2.195.714-.7-2.152-2.195-.714.7zm2.152 2.194c.055.057.055.15 0 .207l.713.7c.437-.445.437-1.16.001-1.606l-.714.7zm0 .206c-.05.052-.13.052-.182 0l-.712.702c.443.45 1.163.45 1.606 0l-.712-.702z"/>
</svg>
